# xmcd CD database file
#
# Track frame offsets:
#	150
#	14055
#	24292
#	30967
#	43965
#	55467
#	68510
#	79172
#	90415
#	97622
#	108050
#	113832
#	123900
#	133610
#	138402
#	149792
#	152850
#	158047
#	163905
#	176195
#	188267
#
# Disc length: 2581 seconds
#
# Revision: 1
# Processed by: cddbd v1.4PL0 Copyright (c) Steve Scherf et al.
# Submitted via: CDex 1.50
#
DISCID=100a1315
DTITLE=Bob Wills - 21 Golden Hits
DYEAR=1989
DGENRE=Country
TTITLE0=Faded Love
TTITLE1=San Antonio Rose
TTITLE2=Beaumont Rag
TTITLE3=All Night Long
TTITLE4=Let's Get It Over and Done With
TTITLE5=If He's Moving In, I'm Moving Out
TTITLE6=Mayflower Waltz
TTITLE7=You Can't Break a Heart
TTITLE8=Done Gone
TTITLE9=Sooner or Later
TTITLE10=Gone Indian
TTITLE11=Buffalo Twist
TTITLE12=Wills Junction
TTITLE13=Bob's Schottische
TTITLE14=No Disappointments in Heaven
TTITLE15=Bob's First Fiddle Tune
TTITLE16=Big Taters in a Sandy Land
TTITLE17=Billy in the Low Ground
TTITLE18=Dean Waltz
TTITLE19=Bob Wills Waltz
TTITLE20=Put Your Little Foot
EXTD=YEAR: 1989
EXTT0=\n
EXTT1=
EXTT2=
EXTT3=
EXTT4=
EXTT5=
EXTT6=
EXTT7=
EXTT8=
EXTT9=
EXTT10=
EXTT11=
EXTT12=
EXTT13=
EXTT14=
EXTT15=
EXTT16=
EXTT17=
EXTT18=
EXTT19=
EXTT20=
PLAYORDER=
